<svg xmlns="http://www.w3.org/2000/svg" viewBox="0 -0.5 31 32" shape-rendering="crispEdges">
<metadata>Made with Pixels to Svg https://codepen.io/shshaw/pen/XbxvNj</metadata>
<path stroke="#f97316" d="M15 6h1M14 7h1M16 7h1M14 8h1M16 8h1M14 9h1M16 9h1M14 10h1M16 10h1M14 11h3M14 12h1M16 12h1M14 13h1M16 13h1M8 14h1M13 14h2M16 14h2M22 14h1M13 15h1M15 15h1M17 15h1M8 16h1M13 16h1M15 16h1M17 16h1M22 16h1M8 17h1M13 17h1M15 17h1M17 17h1M22 17h1M8 18h1M13 18h2M16 18h2M22 18h1M8 19h1M12 19h1M14 19h1M16 19h1M18 19h1M22 19h1M8 20h1M10 20h2M14 20h1M16 20h1M19 20h2M22 20h1M8 21h2M12 21h1M14 21h1M16 21h1M18 21h1M21 21h2M8 22h1M12 22h1M14 22h1M16 22h1M18 22h1M22 22h1M8 23h1M12 23h1M18 23h1M22 23h1M8 24h5M14 24h3M18 24h5M13 25h1M17 25h1" />
</svg>